<?xml version="1.0" standalone="no"?>
<!DOCTYPE svg PUBLIC "-//W3C//DTD SVG 20010904//EN"
 "http://www.w3.org/TR/2001/REC-SVG-20010904/DTD/svg10.dtd">
<svg version="1.0" xmlns="http://www.w3.org/2000/svg"
 width="624.000000pt" height="416.000000pt" viewBox="0 0 624.000000 416.000000"
 preserveAspectRatio="xMidYMid meet">

<g transform="translate(0.000000,416.000000) scale(0.100000,-0.100000)"
fill="#000000" stroke="none">
<path d="M2745 3521 c-82 -24 -132 -51 -192 -105 -63 -57 -110 -128 -133 -204
-15 -47 -18 -93 -18 -233 0 -96 4 -194 10 -219 16 -66 66 -156 116 -207 24
-25 42 -46 40 -48 -2 -1 -34 1 -72 5 -80 9 -131 -2 -150 -33 -9 -13 -17 -67
-21 -135 -4 -62 -10 -112 -14 -110 -3 2 -148 84 -321 183 -173 99 -329 185
-348 192 -43 16 -88 7 -111 -23 -16 -21 -19 -55 -24 -356 -4 -183 -13 -412
-22 -508 -20 -247 -20 -280 8 -321 27 -41 82 -79 112 -79 13 0 169 74 347 165
179 91 329 165 334 165 5 0 8 -64 6 -142 -3 -136 -2 -145 20 -178 48 -71 -38
-70 1110 -11 582 30 1050 58 1072 64 22 7 48 24 58 38 19 25 19 36 5 412 -16
441 -12 425 -104 462 l-50 21 64 68 c69 75 131 189 154 286 19 77 17 222 -4
300 -28 104 -66 169 -147 251 -114 116 -261 179 -415 179 -211 -1 -403 -116
-492 -298 -37 -74 -38 -79 -38 -184 0 -96 -2 -108 -17 -108 -27 0 -92 -70
-105 -113 -8 -27 -8 -48 -1 -75 13 -47 58 -136 92 -181 14 -19 25 -36 23 -37
-5 -5 -407 41 -407 47 0 3 19 15 43 25 23 10 76 53 118 94 126 124 177 259
167 443 -7 112 -38 202 -104 294 -131 184 -381 275 -589 214z m1351 -411 c76
-33 120 -75 156 -148 30 -60 33 -76 33 -152 0 -95 -11 -123 -73 -192 -80 -89
-222 -116 -330 -62 -62 31 -126 100 -144 156 -11 33 -23 46 -64 68 -28 15 -60
29 -72 32 -21 6 -20 9 20 82 63 116 138 183 246 222 58 21 172 17 228 -6z
m-2187 -881 c80 -44 201 -113 269 -152 182 -106 191 -92 -169 -273 l-292 -146
7 59 c3 32 9 178 13 326 4 167 10 267 16 267 6 0 76 -36 156 -81z m1571 -45
c448 -47 816 -86 817 -88 7 -7 22 -491 15 -497 -8 -7 -1763 -102 -1769 -95 -2
2 3 160 11 350 9 191 16 365 16 387 l0 41 48 -6 c26 -4 414 -45 862 -92z"/>
<path d="M3950 1043 c0 -15 15 -30 36 -37 28 -9 74 9 74 29 0 20 -20 19 -34
-1 -12 -15 -46 -10 -46 7 0 5 -7 9 -15 9 -8 0 -15 -3 -15 -7z"/>
<path d="M3054 976 c-83 -36 -115 -155 -67 -249 20 -40 70 -67 122 -67 89 0
144 66 144 171 0 119 -96 189 -199 145z m90 -26 c45 -17 68 -66 63 -139 -3
-57 -7 -67 -35 -92 -20 -18 -43 -29 -62 -29 -19 0 -42 11 -62 29 -28 25 -32
35 -35 92 -3 52 0 70 17 97 29 46 67 60 114 42z"/>
<path d="M3384 971 c-57 -26 -87 -78 -87 -151 0 -70 24 -115 75 -141 56 -29
173 -24 161 7 -4 10 -15 12 -43 8 -90 -15 -150 38 -150 133 0 41 5 58 25 82
33 39 83 55 129 43 29 -9 35 -7 39 8 9 34 -83 41 -149 11z"/>
<path d="M2090 820 c0 -153 1 -160 20 -160 18 0 20 7 20 75 0 72 1 75 24 75
36 0 65 -29 89 -90 17 -41 28 -56 45 -58 l22 -3 -20 51 c-34 86 -49 109 -75
116 -14 3 -25 9 -25 13 0 4 25 37 56 74 52 63 54 67 31 67 -19 0 -38 -17 -78
-70 -30 -38 -57 -70 -61 -70 -5 0 -8 32 -8 70 0 63 -2 70 -20 70 -19 0 -20 -7
-20 -160z"/>
<path d="M2350 819 c0 -160 0 -160 22 -157 17 2 42 34 93 114 38 61 75 120 82
130 9 15 12 -7 12 -113 1 -111 3 -133 16 -133 13 0 15 25 15 161 0 159 0 160
-22 157 -15 -2 -43 -38 -97 -125 l-76 -122 -3 125 c-2 116 -4 124 -22 124 -19
0 -20 -7 -20 -161z"/>
<path d="M2670 819 c0 -147 1 -160 18 -157 14 3 18 16 20 76 l3 72 79 0 80 0
0 -76 c0 -66 2 -75 18 -72 15 3 17 20 20 161 2 152 2 157 -18 157 -18 0 -20
-6 -20 -65 l0 -65 -80 0 -80 0 0 65 c0 58 -2 65 -20 65 -19 0 -20 -7 -20 -161z"/>
<path d="M3626 833 c-27 -82 -51 -154 -53 -160 -3 -8 3 -13 15 -13 15 0 24 13
38 53 l19 52 57 3 57 3 17 -56 c13 -40 23 -55 36 -55 10 0 18 5 18 12 0 7 -23
79 -51 160 -49 140 -53 148 -78 148 -25 0 -29 -7 -75 -147z m104 21 l19 -54
-49 0 -50 0 21 58 c33 93 32 89 37 68 2 -10 12 -43 22 -72z"/>
<path d="M3882 823 c3 -150 4 -158 23 -161 16 -2 37 23 103 129 l82 132 0
-132 c0 -121 2 -132 18 -129 15 3 17 20 20 161 l3 157 -25 0 c-26 0 -32 -8
-138 -185 l-48 -80 0 133 c0 126 -1 132 -20 132 -20 0 -20 -5 -18 -157z"/>
<path d="M4170 965 c0 -11 12 -15 45 -15 l44 0 3 -142 c3 -127 5 -143 21 -146
16 -3 17 9 17 142 l0 146 50 0 c38 0 50 4 50 15 0 12 -19 15 -115 15 -96 0
-115 -3 -115 -15z"/>
</g>
</svg>
